<svg width="20" height="20" viewBox="0 0 20 20" fill="none" xmlns="http://www.w3.org/2000/svg">
<g clip-path="url(#clip0_121_135)">
<path d="M0 0H20V20H0V0Z" fill="#080C92"/>
<path d="M5.67578 6.18799H6.48959L6.97787 6.28099L7.53125 6.436L8.05209 6.65302L8.57292 6.96304L8.89844 7.21105L9.1263 7.42807L9.32162 7.73809L9.25651 7.8621L8.89844 8.23412L8.63802 8.45113L7.40104 9.62921L7.17318 9.87722L6.88021 10.1562L6.65235 10.4043L5.51302 11.4893L5.31771 11.6133L5.1875 11.5823L4.82943 11.3653L4.56901 11.0863L4.3737 10.7763L4.3086 10.5903V10.3733L4.66667 10.0012L5.31771 9.38119L5.57813 9.16418L6.71745 8.07911L6.81511 7.8931L6.48959 7.76909H5.83854L5.38281 7.8931L4.92709 8.07911L4.60156 8.29612L4.34115 8.51314L4.04818 8.94716L3.85287 9.41219L3.75521 9.84622V10.2803L3.88542 10.7763L4.01563 11.0863L4.24349 11.3963L4.56901 11.7373L5.02474 12.0164L5.41537 12.1714L6.03386 12.2644L6.45703 12.2334L6.88021 12.1404L7.27084 11.9854L7.75912 11.6443L8.08464 11.3343L8.41016 10.9313L8.70313 10.4973L9.0612 9.97023L9.25651 9.62921L9.64714 9.00917L9.90755 8.60614L10.2005 8.20312L10.5911 7.70709L10.8516 7.45907L11.0143 7.27306L11.2747 7.05604L11.7305 6.74602L12.2188 6.49801L12.8047 6.312L13.0651 6.24999L13.5859 6.18799H14.0091L14.6927 6.28099L15.2461 6.436L15.6693 6.62202L16.1576 6.90103L16.4831 7.18005L16.7435 7.39707L16.8411 7.49007L16.8086 7.61408L16.3854 7.9861L16.0924 8.20312L15.6693 8.51314L15.5391 8.45113L15.3112 8.23412L14.9206 8.01711L14.4974 7.8621L14.1393 7.80009H13.5208L13.0651 7.8931L12.707 8.04811L12.4141 8.23412L12.0885 8.51314L11.8607 8.76115L11.5352 9.16418L11.2096 9.62921L10.6563 10.4973L10.1354 11.3343L9.875 11.7063L9.58203 12.0784L9.32162 12.3884L8.93099 12.7914L8.57292 13.0704L8.2474 13.2874L7.75912 13.5355L7.33594 13.6905L6.91276 13.7835L6.55469 13.8455H5.74089L5.1875 13.7525L4.66667 13.5975L3.98308 13.2874L3.625 13.0394L3.16927 12.6674L2.8763 12.3574L2.58334 11.9234L2.35547 11.4893L2.16016 10.8693L2.09505 10.4043V9.72221L2.19271 9.19518L2.32292 8.73015L2.58334 8.17212L2.90886 7.67608L3.29948 7.27306L3.59245 6.99404L4.01563 6.71502L4.53646 6.46701L4.99219 6.312L5.51302 6.21899L5.67578 6.18799Z" fill="white"/>
<path d="M13.5859 9.2262H17.7201L17.7852 9.3192L17.8177 9.81523V10.1563L17.7526 10.8073L17.5898 11.3343L17.4271 11.7064L17.1992 12.1094L16.9062 12.4814L16.3529 13.0084L16.0273 13.2255L15.5716 13.4735L15.0833 13.6595L14.595 13.7835L14.237 13.8455H13.4557L12.9023 13.7525L12.3815 13.5975L11.9583 13.4115L11.4375 13.1324L10.9492 12.6984L10.526 12.2644L10.3307 11.9234L10.3633 11.7994L10.9167 10.9003L11.3073 10.3113L11.4375 10.2183L11.5026 10.4043L11.6003 10.7453L11.763 11.1173L12.056 11.5203L12.2839 11.7374L12.7396 12.0164L13.1302 12.1714L13.4883 12.2334H14.1393L14.6602 12.1094L15.1159 11.8924L15.474 11.6133L15.7669 11.3033L15.9297 11.0553L16.0273 10.8073H13.5859L13.5534 10.6523V9.2572L13.5859 9.2262Z" fill="white"/>
<path d="M13.5859 6.18799H14.0091L14.6927 6.28099L15.2461 6.436L15.6693 6.62202L16.1576 6.90103L16.4831 7.18005L16.7435 7.39707L16.8411 7.49007L16.8086 7.61408L16.3854 7.9861L16.0924 8.20312L15.6693 8.51314L15.5391 8.45113L15.3112 8.23412L14.9206 8.01711L14.4974 7.8621L14.1393 7.80009H13.5208L13.0651 7.8931L12.707 8.04811L12.5443 8.14111L12.4141 8.17212L11.9909 8.38913L11.6003 8.63714L11.2096 8.91616L10.7539 9.28819L10.4935 9.5052L9.9401 10.0322L9.67969 10.2492L9.15885 10.7143L8.67057 11.0863L8.14974 11.4583L7.98698 11.5203L8.01953 11.3963L8.44271 10.9003L8.70312 10.4973L9.0612 9.97023L9.25651 9.62921L9.64713 9.00917L9.90755 8.60614L10.2005 8.20312L10.5911 7.70709L10.8516 7.45907L11.0143 7.27306L11.2747 7.05604L11.7305 6.74602L12.2187 6.49801L12.8047 6.312L13.0651 6.24999L13.5859 6.18799Z" fill="white"/>
<path d="M15.3438 8.20312L15.474 8.26513L15.6367 8.35813L15.8971 8.29613V8.35813L15.6693 8.51314L15.5391 8.45114L15.3438 8.26513V8.20312Z" fill="white"/>
<path d="M12.4792 6.40503H12.6094V6.46703L12.2188 6.59104H12.1536V6.52904L12.4792 6.40503Z" fill="white"/>
</g>
<defs>
<clipPath id="clip0_121_135">
<rect width="20" height="20" rx="10" fill="white"/>
</clipPath>
</defs>
</svg>
