<svg width="58" height="76" viewBox="0 0 58 76" fill="none" xmlns="http://www.w3.org/2000/svg">
<g clip-path="url(#clip0_165_25)">
<path d="M13.3984 23.6132H16.6797L19.2578 24.2028L21.6016 25.1462L23.3594 26.0896L25.2344 27.5047L26.2891 28.684L26.6406 29.2736V29.8632L18.2031 38.3538L17.3828 39.2972L16.0938 40.5944L15.2734 41.5377L13.8672 42.9528L12.9297 43.7783L12.3438 44.25L11.7578 44.1321L10.4688 43.1887L9.64844 42.2453L8.82812 40.9481L8.71094 40.4764V39.533L9.64844 38.3538L11.5234 36.467L12.4609 35.6415L14.2188 33.9906L17.2656 30.9245L17.7344 30.0991L16.6797 29.6274H14.1016L12.6953 29.9811L11.6406 30.4528L10.4688 31.0425L9.0625 32.1038L8.00781 33.5189L7.30469 35.0519L6.95312 36.1132L6.83594 36.9387L6.71875 37.0566V39.533L7.07031 41.0661L8.125 43.0708L9.17969 44.3679L10.5859 45.4293L11.9922 46.1368L13.3984 46.6085L14.3359 46.7264H15.7422L17.8516 46.3727L18.3203 46.1368H18.7891V45.901L19.7266 45.4293L22.3047 43.7783L23.5938 42.8349L25.2344 41.5377L26.875 40.1227L28.0469 38.9434L28.9844 38.1179L31.6797 35.4057L34.6094 33.0472L36.6016 31.75L37.8906 31.0425L38.125 31.1604L36.7188 32.4576L35.5469 33.7547L34.1406 35.7594L33.3203 36.9387L32.6172 38.2359L31.6797 39.7689L30.2734 42.1274L29.1016 44.0142L27.6953 46.0189L26.1719 47.7877L25.5859 48.4953L24.2969 49.5566L23.3594 50.2642L21.8359 51.2076L20.5469 51.7972L18.7891 52.3868L18.0859 52.5047H16.9141V52.7406H13.5156L13.2812 52.6227L12.2266 52.5047L10.8203 52.151L9.76562 51.6793L8.59375 51.2076L7.1875 50.3821L5.89844 49.4387L4.49219 48.1415L3.4375 46.9623L2.5 45.5472L1.5625 43.5425L1.21094 42.4811L0.742188 40.4764V36.467L0.976562 35.1698L1.32812 34.1085L1.79688 32.5755L2.73438 30.6887L3.32031 29.8632L3.67188 29.2736L4.96094 27.8585L6.25 26.5613L7.77344 25.5L9.64844 24.5566L11.2891 24.0849L11.9922 23.8491L13.3984 23.6132Z" fill="#080C92"/>
<path d="M41.9922 35.1698H56.9922L57.2266 35.6415V40.2406L56.875 42.1273L56.0547 44.3679L55 46.2547L54.0625 47.5519L52.1875 49.4387L50.5469 50.6179L48.6719 51.5613L47.2656 52.1509L45.7422 52.5047H44.6875V52.7406H41.2891L41.1719 52.6226L39.0625 52.2689L37.0703 51.5613L35.0781 50.5L34.1406 49.7924L33.5547 49.4387V49.2028L33.0859 48.967L32.1484 48.0236L31.0938 46.7264L30.5078 45.783L30.3906 45.0755L31.7969 42.717L33.3203 40.2406L33.7891 39.4151L34.1406 38.9434H34.375L34.6094 39.533L34.9609 41.066L35.8984 42.9528L36.7188 44.0141L37.5391 44.8396L38.8281 45.6651L39.7656 46.1368L40.9375 46.4906L41.5234 46.6085H43.5156L45.3906 46.3726L47.3828 45.4292L48.3203 44.7217L49.2578 43.8962L49.375 43.6604H49.6094L49.8438 43.1887L50.5469 42.1273L50.8984 41.184H41.9922V35.1698Z" fill="#050C91"/>
<path d="M8.82812 55.0991H49.2578V55.3349L48.3203 56.1604L29.2188 75.3821L28.75 75.2642L9.0625 55.4528L8.82812 55.3349V55.0991ZM14.3359 57.4576L15.0391 58.283L28.9844 72.316L29.8047 71.6085L43.75 57.5755V57.4576H14.3359Z" fill="#081093"/>
<path d="M28.9844 0.61792L29.8047 1.32547L49.1406 20.783V21.0189H8.82812L9.53125 20.1934L28.9844 0.61792ZM28.8672 3.80188L14.2188 18.5424V18.7783H43.75L43.5156 18.3066L29.1016 3.80188H28.8672Z" fill="#070F92"/>
<path d="M42.4609 23.6132L44.8047 23.7311L47.0313 24.2028L48.9063 24.9104L50.3125 25.6179L51.6016 26.5613L52.8906 27.6227L53.8281 28.5661L53.7109 29.0377L52.7734 29.8632L51.1328 31.2783L49.6094 32.4576L49.1406 32.2217L48.0859 31.2783L46.0938 30.217L44.8047 29.8632L43.75 29.7453H42.2266L40.5859 29.9811L39.1797 30.5708L38.3594 31.0425L37.1875 31.5142L35.3125 32.6934L33.4375 34.1085L31.9141 35.4057L30.9766 36.2311L28.2813 38.9434L27.3438 39.7689L26.4063 40.7123L25.2344 41.6557L23.3594 43.1887L21.9531 44.1321L21.8359 43.8962L22.3047 43.0708L23.3594 41.7736L24.5313 40.0047L25.9375 37.6462L27.1094 35.6415L28.9844 32.5755L30.3906 30.5708L31.3281 29.3915L32.6172 27.9764L33.4375 27.151L34.9609 25.9717L36.8359 24.9104L39.2969 24.0849L41.0547 23.7311L42.4609 23.6132Z" fill="#DBD9E4"/>
</g>
<defs>
<clipPath id="clip0_165_25">
<rect width="58" height="76" fill="white"/>
</clipPath>
</defs>
</svg>
