<svg width="200" height="76" viewBox="0 0 200 76" fill="none" xmlns="http://www.w3.org/2000/svg">
<g clip-path="url(#clip0_51_5)">
<path d="M13.3984 23.6132H16.6797L19.2578 24.2028L21.6016 25.1462L23.3594 26.0896L25.2344 27.5047L26.2891 28.684L26.6406 29.2736V29.8632L18.2031 38.3538L17.3828 39.2972L16.0938 40.5944L15.2734 41.5378L13.8672 42.9528L12.9297 43.7783L12.3438 44.25L11.7578 44.1321L10.4688 43.1887L9.64844 42.2453L8.82812 40.9481L8.71094 40.4764V39.533L9.64844 38.3538L11.5234 36.467L12.4609 35.6415L14.2188 33.9906L17.2656 30.9245L17.7344 30.0991L16.6797 29.6274H14.1016L12.6953 29.9811L11.6406 30.4528L10.4688 31.0425L9.0625 32.1038L8.00781 33.5189L7.30469 35.0519L6.95312 36.1132L6.83594 36.9387L6.71875 37.0566V39.533L7.07031 41.0661L8.125 43.0708L9.17969 44.3679L10.5859 45.4293L11.9922 46.1368L13.3984 46.6085L14.3359 46.7264H15.7422L17.8516 46.3727L18.3203 46.1368H18.7891V45.901L19.7266 45.4293L22.3047 43.7783L23.5938 42.8349L25.2344 41.5378L26.875 40.1227L28.0469 38.9434L28.9844 38.1179L31.6797 35.4057L34.6094 33.0472L36.6016 31.75L37.8906 31.0425L38.125 31.1604L36.7188 32.4576L35.5469 33.7547L34.1406 35.7594L33.3203 36.9387L32.6172 38.2359L31.6797 39.7689L30.2734 42.1274L29.1016 44.0142L27.6953 46.0189L26.1719 47.7878L25.5859 48.4953L24.2969 49.5566L23.3594 50.2642L21.8359 51.2076L20.5469 51.7972L18.7891 52.3868L18.0859 52.5047H16.9141V52.7406H13.5156L13.2812 52.6227L12.2266 52.5047L10.8203 52.151L9.76562 51.6793L8.59375 51.2076L7.1875 50.3821L5.89844 49.4387L4.49219 48.1415L3.4375 46.9623L2.5 45.5472L1.5625 43.5425L1.21094 42.4811L0.742188 40.4764V36.467L0.976562 35.1698L1.32812 34.1085L1.79688 32.5755L2.73438 30.6887L3.32031 29.8632L3.67188 29.2736L4.96094 27.8585L6.25 26.5613L7.77344 25.5L9.64844 24.5566L11.2891 24.0849L11.9922 23.8491L13.3984 23.6132Z" fill="#080C92"/>
<path d="M41.9922 35.1698H56.9922L57.2266 35.6415V40.2406L56.875 42.1273L56.0547 44.3679L55 46.2547L54.0625 47.5519L52.1875 49.4387L50.5469 50.6179L48.6719 51.5613L47.2656 52.1509L45.7422 52.5047H44.6875V52.7406H41.2891L41.1719 52.6226L39.0625 52.2689L37.0703 51.5613L35.0781 50.5L34.1406 49.7924L33.5547 49.4387V49.2028L33.0859 48.967L32.1484 48.0236L31.0938 46.7264L30.5078 45.783L30.3906 45.0755L31.7969 42.717L33.3203 40.2406L33.7891 39.4151L34.1406 38.9434H34.375L34.6094 39.533L34.9609 41.066L35.8984 42.9528L36.7188 44.0141L37.5391 44.8396L38.8281 45.6651L39.7656 46.1368L40.9375 46.4906L41.5234 46.6085H43.5156L45.3906 46.3726L47.3828 45.4292L48.3203 44.7217L49.2578 43.8962L49.375 43.6604H49.6094L49.8438 43.1887L50.5469 42.1273L50.8984 41.184H41.9922V35.1698Z" fill="#050C91"/>
<path d="M8.82812 55.0991H49.2578V55.3349L48.3203 56.1604L29.2188 75.3821L28.75 75.2642L9.0625 55.4528L8.82812 55.3349V55.0991ZM14.3359 57.4576L15.0391 58.283L28.9844 72.316L29.8047 71.6085L43.75 57.5755V57.4576H14.3359Z" fill="#081093"/>
<path d="M28.9844 0.61792L29.8047 1.32547L49.1406 20.783V21.0189H8.82812L9.53125 20.1934L28.9844 0.61792ZM28.8672 3.80188L14.2188 18.5424V18.7783H43.75L43.5156 18.3066L29.1016 3.80188H28.8672Z" fill="#070F92"/>
<path d="M42.4609 23.6132L44.8047 23.7311L47.0313 24.2028L48.9063 24.9104L50.3125 25.6179L51.6016 26.5613L52.8906 27.6227L53.8281 28.5661L53.7109 29.0377L52.7734 29.8632L51.1328 31.2783L49.6094 32.4576L49.1406 32.2217L48.0859 31.2783L46.0938 30.217L44.8047 29.8632L43.75 29.7453H42.2266L40.5859 29.9811L39.1797 30.5708L38.3594 31.0425L37.1875 31.5142L35.3125 32.6934L33.4375 34.1085L31.9141 35.4057L30.9766 36.2311L28.2813 38.9434L27.3438 39.7689L26.4063 40.7123L25.2344 41.6557L23.3594 43.1887L21.9531 44.1321L21.8359 43.8962L22.3047 43.0708L23.3594 41.7736L24.5313 40.0047L25.9375 37.6462L27.1094 35.6415L28.9844 32.5755L30.3906 30.5708L31.3281 29.3915L32.6172 27.9764L33.4375 27.151L34.9609 25.9717L36.8359 24.9104L39.2969 24.0849L41.0547 23.7311L42.4609 23.6132Z" fill="#DBD9E4"/>
<path d="M86.0547 35.7594H90.2734V51.2075H86.0547L85.9375 50.0283L85 50.8538L83.9453 51.4434L83.2422 51.5613H82.3047L80.5469 51.0896L79.4922 50.3821L78.5547 49.3208L77.8516 47.7877L77.6172 46.9623V44.0141L77.9688 42.8349L78.5547 41.6557L79.6094 40.4764L80.7812 39.7689L81.4844 39.533H83.7109L84.7656 39.8868L85.7031 40.5943L85.9375 40.8302L86.0547 35.7594Z" fill="#060E92"/>
<path d="M193.164 39.533H195.508L196.68 40.0047L197.734 40.8302L198.672 42.0094L199.141 43.1887L199.375 44.1321V46.9623L199.141 47.6698L198.672 48.8491L197.969 49.9104L197.031 50.7359L196.211 51.2075L195.625 51.4434L194.922 51.5613H193.867L192.461 51.2075L191.406 50.5L190.938 50.1462V54.7453H186.953L186.836 54.6274V39.6509H190.938L191.055 40.9481L192.227 39.8868L193.164 39.533Z" fill="#050D91"/>
<path d="M140.195 36.1132H143.945L145.469 36.5849L146.992 37.4104L147.93 38.1179L147.695 38.5896L146.758 39.7689L145.938 40.7123L145.703 41.0661L145.117 40.8302L144.062 40.2406L143.711 40.0047L142.891 39.8868V39.651H141.25V39.8868L140.195 40.2406L139.609 40.7123H139.375L139.141 41.184L138.555 42.2453L138.438 42.717H138.203V44.9576H138.438L138.906 46.2547L139.492 46.9623L140.312 47.5519L141.25 47.7877V48.0236L143.242 47.9057L144.414 47.434H144.648V45.5472H141.602V42.4811H148.516V49.3208L146.758 50.5L144.883 51.2076L143.125 51.5613H140.898L140.781 51.4434L139.258 51.2076L138.086 50.7359L136.797 49.9104L135.273 48.3774L134.336 46.4906L133.984 44.8396V42.9528L134.336 41.184L135.273 39.2972L136.445 38L137.969 36.9387L139.023 36.467L140.195 36.1132Z" fill="#050D91"/>
<path d="M64.375 36.3491H76.2109V39.8868H68.2422V42.1274H75.3906V45.3113L68.3594 45.4292L68.2422 47.7877H76.3281V51.2076H64.375V36.3491Z" fill="#030B91"/>
<path d="M151.328 19.8396H152.734L154.258 20.1934L155.898 21.0189V21.2547L156.484 21.4906L157.305 22.316L158.125 23.7311L158.477 24.6745L158.594 25.7359V27.151L158.242 28.8019L157.773 29.8632H157.539L157.422 30.3349L156.602 31.2783L155.547 32.1038L154.258 32.6934L153.555 32.9293H150.508L149.453 32.5755L148.164 31.8679L146.992 30.8066L146.172 29.6274L145.703 28.566L145.586 27.9764V25.0283L146.055 23.6132L146.875 22.316L147.93 21.2547L148.984 20.5472L150.273 20.0755L151.328 19.8396Z" fill="#6E70BA"/>
<path d="M163.867 39.533H166.68L167.969 39.8868L169.375 40.7123L170.547 41.8915L171.133 42.8349L171.602 44.1321V46.7264L171.25 47.7877L170.547 49.0849L169.258 50.3821L167.734 51.2075L167.031 51.4434L166.094 51.5613H164.453L162.93 51.2075L161.758 50.6179L160.703 49.7925L160 48.967L159.18 47.434L159.062 46.9623V44.0142L159.531 42.8349L160.234 41.7736L161.289 40.7123L162.695 39.8868L163.867 39.533Z" fill="#050D91"/>
<path d="M96.3672 39.533H99.0625L99.8828 39.7689L101.289 40.4764L102.227 41.4198L102.93 42.5991L103.281 43.8962L103.398 44.0142L103.516 45.3113V46.7264H95.8984L96.3672 47.6698L97.1875 48.2594L97.7734 48.3774H98.7109L99.5312 48.1415L100.352 47.6698L100.586 47.434L101.172 47.5519L102.227 48.4953L102.93 49.0849L102.695 49.5566L101.758 50.5L100.469 51.2075L99.8828 51.4434L98.9453 51.5613H97.1875L95.5469 51.2075L94.2578 50.5L93.3203 49.6745L92.5 48.4953L91.9141 46.8443V44.1321L92.2656 43.0708L92.7344 42.1274L93.5547 41.066L94.6094 40.2406L95.1953 39.8868L96.3672 39.533Z" fill="#070F92"/>
<path d="M173.242 39.6509H177.344L177.461 46.3726L177.695 47.1981L178.164 47.6698L178.516 47.7877H179.336L180.039 47.434L180.508 46.6085L180.625 39.6509H184.609V51.2075H180.625L180.508 49.9104L179.336 50.9717L178.398 51.4434L177.695 51.5613H176.641L175.82 51.4434L174.414 50.6179L173.711 49.5566L173.242 48.3774V39.6509Z" fill="#060E92"/>
<path d="M161.289 20.0755H167.617L169.375 20.5472L170.43 21.2547L171.133 22.1981L171.484 23.0236V25.3821L170.898 26.4434L170.195 27.2689L168.789 27.9764L169.023 28.566L170.547 30.6887L171.836 32.5755V32.6934H169.258L167.617 30.4528L166.445 28.8019L166.328 28.4481L163.516 28.3302V32.6934H161.289V20.0755Z" fill="#464AAA"/>
<path d="M120.508 39.533H123.086L124.961 40.0047L126.367 40.7123V41.066L125.312 43.0708L124.844 43.3066L123.906 42.8349L122.734 42.4811H120.977V43.3066L122.617 43.8962L124.141 44.3679L125.312 44.9575L126.133 45.6651L126.602 46.4906L126.719 47.9057L126.484 49.0849L126.016 50.0283L125.078 50.8538L124.258 51.2075H123.789V51.4434L122.969 51.5613H121.211L120.039 51.4434L119.102 51.0896L117.812 50.6179L116.641 49.9104L116.758 49.4387L117.461 48.2594L117.93 47.434L118.516 47.5519L119.922 48.2594L121.445 48.4953H122.734L123.086 48.3774V47.7877L122.5 47.5519L120.859 46.9623L119.336 46.4906L118.164 45.783L117.461 44.9575L117.227 44.4859L117.109 42.8349L117.344 41.7736L117.812 41.066L118.633 40.2406L119.922 39.6509L120.508 39.533Z" fill="#060E92"/>
<path d="M120.391 20.0755H122.5L122.969 20.783L124.141 22.316L125.078 23.4953L126.484 25.3821L127.656 26.9151L128.594 28.0943L128.945 28.566L129.062 20.0755H131.289V32.6934H129.414L128.008 30.9245L126.836 29.3915L125.547 27.7406L124.375 26.2075L122.734 24.0849V23.8491H122.5V32.6934H120.391V20.0755Z" fill="#9D9CCA"/>
<path d="M74.1016 20.0755H76.0938L77.0312 21.9623L78.6719 25.7358L81.3672 31.9858L81.6016 32.6934H79.2578L78.0859 29.8632L72.1094 29.6274L71.7578 30.6887L70.9375 32.5755L70.8203 32.6934H68.7109L69.0625 31.6321L70.8203 27.5047L73.1641 22.1981L74.1016 20.0755Z" fill="#DBD9E4"/>
<path d="M174.18 20.0755H183.672V22.1981H176.523V25.3821H182.734V27.3868L182.617 27.5047H176.523V30.8066H183.555V32.6934H174.18V20.0755Z" fill="#4549A9"/>
<path d="M108.32 20.0755H117.578V22.1981H110.43V25.3821H116.875V27.5047H110.547V30.8066H117.812V32.6934H108.32V20.0755Z" fill="#A09ECB"/>
<path d="M105.273 35.7594H109.375V51.2075H105.273V35.7594Z" fill="#080C92"/>
<path d="M157.188 39.533H158.242V43.7783L156.836 43.8962L155.898 44.3679L155.195 45.1934L154.844 46.0189L154.727 46.9623L154.609 51.2075H150.625V39.7689H154.492V42.0094H154.727L154.844 41.4198L155.312 40.5943L156.25 39.8868L157.188 39.533Z" fill="#080C92"/>
<path d="M86.875 19.9576H88.2812L89.5703 20.1934L91.0938 20.783L92.0312 21.3726L91.9141 21.9623L90.9766 23.2594L88.8672 22.1981L88.3984 22.0802H86.6406L86.0547 22.434H85.8203L85.5859 23.0236V23.8491L85.9375 24.4387L87.1094 25.0283L89.9219 25.8538L91.5625 26.6792L92.2656 27.7406L92.5 28.3302V30.0991L91.7969 31.5142L90.9766 32.2217L90.0391 32.6934L89.2188 32.9292H86.7578L84.8828 32.3396L83.5938 31.6321L82.7734 31.0425L83.0078 30.5708L84.0625 29.3915L84.5312 29.6274L85.7031 30.3349L86.5234 30.6887L87.4609 30.9245H88.5156L89.9219 30.4528L90.1562 29.8632V28.9198L89.9219 28.4481L88.9844 27.9764L85.8203 27.033L84.6484 26.4434L83.9453 25.8538L83.3594 24.7925V22.6698L83.9453 21.4906L84.7656 20.6651L85.7031 20.1934L86.875 19.9576Z" fill="#C6C6DD"/>
<path d="M151.328 21.9623H152.852L153.789 22.3161L154.844 23.0236L155.664 23.967L156.133 24.9104L156.25 25.2642V27.6227L155.781 28.8019L154.961 29.8632L154.492 30.3349L153.438 30.8066L152.617 30.9245H151.445L150.273 30.6887L148.984 29.7453L148.281 28.684L147.812 27.3868V25.3821L148.281 24.2028L148.75 23.4953L149.57 22.6698L150.508 22.1981L151.328 21.9623Z" fill="#FDFDFC"/>
<path d="M137.969 19.9576H139.609L141.25 20.4292L142.188 20.9009L142.891 21.3726L142.773 21.9623L141.953 23.1415L141.484 23.0236L139.844 22.1981L139.492 22.0802H137.148V22.316L136.445 23.0236V23.7311L136.68 24.4387L137.148 24.6745L138.906 25.2642L140.898 25.8538L142.07 26.4434L142.656 26.9151L143.125 27.5047L143.477 28.684V29.7453L143.125 30.8066L142.422 31.75L141.484 32.4576L140.195 32.9292H137.734L136.445 32.5755L135.508 32.1038L134.688 31.75L133.75 31.0425L133.984 30.4528L134.922 29.5094L135.508 29.6274L136.094 30.0991L137.5 30.6887L138.438 30.9245H139.727L140.664 30.4528H140.898L141.133 29.7453V28.9198L140.547 28.2123L138.672 27.5047L137.383 27.2689L135.977 26.6792L134.922 25.8538L134.336 25.0283L134.219 24.3208V23.0236L134.688 21.7264L135.508 20.783L136.562 20.1934L137.969 19.9576Z" fill="#7172BB"/>
<path d="M189.766 19.9576H190.82L192.227 20.1934L193.633 20.783L194.688 21.4906L194.453 22.0802L193.633 23.1415L193.164 23.0236L191.875 22.316L191.289 22.0802H189.297L188.477 22.5519L188.242 22.9057V24.0849L188.828 24.6745L190.117 25.1462L192.578 25.8538L193.984 26.5613L194.805 27.5047L195.039 27.9764L195.156 28.684V29.9811L194.922 30.8066H194.688L194.57 31.2783L193.633 32.2217L192.695 32.6934L191.992 32.9292H189.297V32.6934H188.477L186.953 32.1038L185.781 31.2783L185.547 31.0425L185.664 30.5708L186.719 29.5094L187.305 29.7453L188.711 30.5708L189.883 30.9245H191.289L192.461 30.4528L192.812 29.7453V28.9198L192.461 28.3302L191.523 27.8585L189.18 27.2689L188.359 26.9151L187.422 26.5613L186.484 25.7359L186.016 24.9104L185.898 24.2028V23.0236L186.367 21.7264L187.539 20.5472L188.711 20.0755L189.766 19.9576Z" fill="#081093"/>
<path d="M99.8828 19.9576H102.344L103.75 20.3113V20.5472L104.336 20.6651L105.391 21.3726L105.977 21.7264L105.742 22.1981L105.391 22.5519H105.156L104.922 23.1415L104.453 23.4953L103.281 22.6698L103.047 22.5519V22.316L101.758 22.0802H100.352L99.5312 22.316L98.9453 22.5519L98.4766 22.6698L98.2422 23.1415L97.8906 23.4953H97.6562L97.5391 23.967L97.3047 24.3208L96.9531 25.8538V27.033L97.4219 28.566L98.2422 29.7453L98.9453 30.3349L99.6484 30.6887L100.469 30.9245H101.641L101.758 30.8066L102.812 30.5708L103.984 29.8632L104.453 29.3915L104.922 29.6274L105.977 30.6887L105.273 31.5142L104.219 32.2217L102.695 32.8113L102.578 32.9292H99.5312L98.2422 32.4576L96.9531 31.75L95.8984 30.6887L95.1953 29.5094L94.7266 28.3302L94.4922 27.1509V26.0896L94.8438 24.2028L94.9609 23.8491H95.1953L95.4297 23.0236L95.6641 22.5519H95.8984L96.25 21.8443H96.4844V21.6085L97.6562 20.783L98.8281 20.1934L99.8828 19.9576Z" fill="#C4C4DC"/>
<path d="M151.445 19.9576H153.438L154.727 20.4292L155.898 21.0189V21.2547L156.484 21.4906L157.305 22.316L158.125 23.7311L158.477 24.6745L158.594 25.7359V27.1509L158.242 28.8019L157.773 29.8632H157.539L157.422 30.3349L156.602 31.2783L155.547 32.1038L154.258 32.6934L153.672 32.8113H152.148L152.852 31.9859L152.969 31.6321L152.383 31.2783L151.914 31.0425L152.617 30.8066L153.789 30.5708L154.727 29.9811L155.43 29.1557L156.016 27.9764L156.133 27.6226V25.2642L155.664 24.2028L154.961 23.2594L154.023 22.5519L153.32 22.1981L152.5 21.9623L151.445 21.8443L151.914 21.3726H152.148L152.266 21.0189L152.734 20.9009L152.617 20.5472L152.266 20.4292V20.0755H151.445V19.9576Z" fill="#464AAA"/>
<path d="M129.062 20.0755H131.289V32.6934H129.414L128.008 30.9245L126.836 29.3915L125.781 27.9764L125.898 27.7406L126.484 28.4481L127.773 29.1557V27.9764L127.539 27.1509L126.953 26.4434L127.07 26.2075L128.359 27.7406L128.945 28.566L129.062 20.0755Z" fill="#7375BC"/>
<path d="M111.484 36.2311H115.703V40.3585L115.469 41.5377L115 42.4811L114.531 43.0708L113.711 43.5425L113.008 43.8962L112.305 44.0142H111.25L111.016 43.1887V42.4811L112.07 42.1274L112.773 41.5377L113.125 40.4764H111.484V36.2311Z" fill="#091193"/>
<path d="M163.516 22.1981H167.5L168.438 22.5519L169.023 23.0236L169.375 23.8491V24.6745L168.906 25.6179L168.32 26.0896L167.852 26.3255L167.148 26.4434H163.516V22.1981Z" fill="#FDFDFB"/>
<path d="M164.453 42.9528H165.977L166.68 43.3066L167.266 43.7783L167.734 44.6038V46.4906H167.5L167.383 46.9623L166.797 47.6698L166.211 48.0236L165.039 48.1415L164.336 47.9057L163.633 47.434L163.164 46.8443L162.93 46.3726V44.9575L163.164 44.1321L163.984 43.1887L164.453 42.9528Z" fill="#FAFAFA"/>
<path d="M83.0078 42.9528H84.6484L85.5859 43.5424L86.1719 44.4858V46.4906H85.9375L85.8203 47.0802L85.3516 47.6698L84.7656 48.0236L84.2969 48.1415H83.3594L82.4219 47.6698L81.9531 47.0802L81.6016 46.4906L81.4844 45.1934L81.7188 44.25L82.1875 43.5424L82.7734 43.0707L83.0078 42.9528Z" fill="#FBFBFA"/>
<path d="M192.227 42.9528H193.867L194.453 43.3066L195.273 44.25L195.391 44.6038V46.3726L195.273 46.8443H195.039L194.922 47.316L194.102 48.0236L193.516 48.1415H192.578L191.875 47.7877L191.289 47.1981L190.938 46.6085L190.703 45.9009V44.9575L191.172 43.8962L191.641 43.3066L192.227 42.9528Z" fill="#FCFCFB"/>
<path d="M99.8828 19.9576H102.344L103.75 20.3113V20.5472L104.336 20.6651L105.391 21.3726L105.977 21.7264L105.742 22.1981L105.391 22.5519H105.156L104.922 23.1415L104.453 23.4953L103.281 22.6698L103.047 22.5519V22.316L101.758 22.0802H100.352L99.5312 22.316L98.9453 22.5519L98.4766 22.6698L98.2422 23.1415L97.8906 23.4953H97.6562L97.5391 23.967L97.1875 24.5566H96.9531L97.0703 23.8491L97.5391 22.7877L98.9453 21.3726L98.3594 21.1368L97.1875 21.4906L96.8359 21.3726L97.6562 20.783L98.8281 20.1934L99.8828 19.9576Z" fill="#A19FCC"/>
<path d="M104.453 29.3915L104.922 29.6274L105.977 30.6887L105.273 31.5142L104.219 32.2217L102.695 32.8113L102.578 32.9292H99.5312L99.1797 32.8113V32.4575L99.5312 32.3396L99.4141 32.1038L99.5312 31.5142L99.0625 31.2783L98.5938 30.9245L98.3594 30.0991L98.9453 30.3349L99.6484 30.6887L100.469 30.9245H101.641L101.758 30.8066L102.812 30.5708L103.984 29.8632L104.453 29.3915Z" fill="#A09ECB"/>
<path d="M75.0391 22.7877L75.3906 23.2594L76.9141 26.6792L77.2656 27.5047V27.8585H72.9297L73.0469 27.2689L74.9219 22.9056L75.0391 22.7877Z" fill="#FFFFFD"/>
<path d="M97.1875 42.4811H98.4766L99.2969 43.1887L99.6484 43.8962V44.6038H95.6641L95.7812 44.1321L96.1328 43.3066L96.7187 42.717L97.1875 42.4811Z" fill="#F3F3F6"/>
<path d="M78.5547 25.9717H78.7891L80.5469 30.0991L81.6016 32.4576V32.6934H80.4297L80.3125 32.3396V31.75L79.9609 31.0425L79.375 29.1557L79.2578 28.0944L78.6719 26.6793L78.5547 25.9717Z" fill="#C7C7DD"/>
<path d="M179.688 25.3821H182.734V27.3868H181.445V27.2689H182.266L182.383 25.6179L179.688 25.5V25.3821Z" fill="#171E99"/>
<path d="M186.367 30.0991H187.07V30.6887L186.602 31.1604L186.016 30.9245L186.133 30.3349L186.367 30.0991Z" fill="#4347A9"/>
<path d="M96.7188 21.4906L97.0703 21.6085L96.0156 22.6698L95.8984 22.316L96.25 21.8443H96.4844V21.6085L96.7188 21.4906Z" fill="#B8B7D6"/>
<path d="M77.7344 29.5094L78.5547 29.6274L78.6719 30.0991L78.5547 30.4528H78.3203L78.0859 29.6274L77.7344 29.5094Z" fill="#C8C8DE"/>
</g>
<defs>
<clipPath id="clip0_51_5">
<rect width="200" height="76" fill="white"/>
</clipPath>
</defs>
</svg>
