<svg width="166" height="63" viewBox="0 0 166 63" fill="none" xmlns="http://www.w3.org/2000/svg">
<g clip-path="url(#clip0_107_754)">
<path d="M11.0273 19.4922H13.4688L14.9336 19.7852L16.5938 20.2734L18.1562 20.957L19.7188 21.9336L20.6953 22.7148L21.3789 23.3984L21.9648 24.375L21.7695 24.7656L20.6953 25.9375L19.9141 26.6211L16.2031 30.332L15.5195 31.1133L14.6406 31.9922L13.957 32.7734L10.5391 36.1914L9.95312 36.582L9.5625 36.4844L8.48828 35.8008L7.70703 34.9219L7.12109 33.9453L6.92578 33.3594V32.6758L8 31.5039L9.95312 29.5508L10.7344 28.8672L14.1523 25.4492L14.4453 24.8633L13.4688 24.4727H11.5156L10.1484 24.8633L8.78125 25.4492L7.80469 26.1328L7.02344 26.8164L6.14453 28.1836L5.55859 29.6484L5.26562 31.0156V32.3828L5.65625 33.9453L6.04688 34.9219L6.73047 35.8984L7.70703 36.9727L9.07422 37.8516L10.2461 38.3398L12.1016 38.6328L13.3711 38.5352L14.6406 38.2422L15.8125 37.7539L17.2773 36.6797L18.2539 35.7031L19.2305 34.4336L20.1094 33.0664L21.1836 31.4062L21.7695 30.332L22.9414 28.3789L23.7227 27.1094L24.6016 25.8398L25.7734 24.2773L26.5547 23.4961L27.043 22.9102L27.8242 22.2266L29.1914 21.25L30.6562 20.4688L32.4141 19.8828L33.1953 19.6875L34.7578 19.4922H36.0273L38.0781 19.7852L39.7383 20.2734L41.0078 20.8594L42.4727 21.7383L43.4492 22.6172L44.2305 23.3008L44.5234 23.5938L44.4258 23.9844L43.1562 25.1562L42.2773 25.8398L41.0078 26.8164L40.6172 26.6211L39.9336 25.9375L38.7617 25.2539L37.4922 24.7656L36.418 24.5703H34.5625L33.1953 24.8633L32.1211 25.3516L31.2422 25.9375L30.2656 26.8164L29.582 27.5977L28.6055 28.8672L27.6289 30.332L25.9688 33.0664L24.4062 35.7031L23.625 36.875L22.7461 38.0469L21.9648 39.0234L20.793 40.293L19.7188 41.1719L18.7422 41.8555L17.2773 42.6367L16.0078 43.125L14.7383 43.418L13.6641 43.6133H11.2227L9.5625 43.3203L8 42.832L5.94922 41.8555L4.875 41.0742L3.50781 39.9023L2.62891 38.9258L1.75 37.5586L1.06641 36.1914L0.480469 34.2383L0.285156 32.7734V30.625L0.578125 28.9648L0.96875 27.5L1.75 25.7422L2.72656 24.1797L3.89844 22.9102L4.77734 22.0312L6.04688 21.1523L7.60938 20.3711L8.97656 19.8828L10.5391 19.5898L11.0273 19.4922Z" fill="#FDFDFD"/>
<path d="M34.7578 29.0625H47.1602L47.3555 29.3555L47.4531 30.918V31.9922L47.2578 34.043L46.7695 35.7031L46.2812 36.875L45.5977 38.1445L44.7188 39.3164L43.0586 40.9766L42.082 41.6602L40.7148 42.4414L39.25 43.0273L37.7852 43.418L36.7109 43.6133H34.3672L32.707 43.3203L31.1445 42.832L29.875 42.2461L28.3125 41.3672L26.8477 40L25.5781 38.6328L24.9922 37.5586L25.0898 37.168L26.75 34.3359L27.9219 32.4805L28.3125 32.1875L28.5078 32.7734L28.8008 33.8477L29.2891 35.0195L30.168 36.2891L30.8516 36.9727L32.2188 37.8516L33.3906 38.3398L34.4648 38.5352H36.418L37.9805 38.1445L39.3477 37.4609L40.4219 36.582L41.3008 35.6055L41.7891 34.8242L42.082 34.043H34.7578L34.6602 33.5547V29.1602L34.7578 29.0625Z" fill="#FDFDFD"/>
<path d="M23.7227 3.18359L24.1133 3.28125L36.125 15.293V15.4883H11.6133L11.8086 15.0977L23.7227 3.18359Z" fill="#040992"/>
<path d="M11.6133 47.5195H36.125L35.5391 48.2031L23.918 59.8242L23.2344 59.2383L11.6133 47.6172V47.5195Z" fill="#040992"/>
<path d="M7.12109 45.5664H40.6172L40.4219 45.957L24.0156 62.3633L23.625 62.2656L7.12109 45.7617V45.5664ZM11.6133 47.5195L12.1992 48.2031L23.8203 59.8242L24.5039 59.2383L36.125 47.6172V47.5195H11.6133Z" fill="#FAFAFC"/>
<path d="M23.8203 0.449219L24.5039 1.03516L40.6172 17.1484V17.3438H7.02344L7.60938 16.6602L23.8203 0.449219ZM23.7227 3.18359L11.6133 15.293V15.4883H36.125L35.9297 15.0977L24.0156 3.18359H23.7227Z" fill="#FBFAFC"/>
<path d="M34.7578 19.4922H36.0273L38.0781 19.7852L39.7383 20.2734L41.0078 20.8594L42.4727 21.7383L43.4492 22.6172L44.2305 23.3008L44.5234 23.5938L44.4258 23.9844L43.1562 25.1562L42.2773 25.8398L41.0078 26.8164L40.6172 26.6211L39.9336 25.9375L38.7617 25.2539L37.4922 24.7656L36.418 24.5703H34.5625L33.1953 24.8633L32.1211 25.3516L31.6328 25.6445L31.2422 25.7422L29.9727 26.4258L28.8008 27.207L27.6289 28.0859L26.2617 29.2578L25.4805 29.9414L23.8203 31.6016L23.0391 32.2852L21.4766 33.75L20.0117 34.9219L18.4492 36.0938L17.9609 36.2891L18.0586 35.8984L19.3281 34.3359L20.1094 33.0664L21.1836 31.4062L21.7695 30.332L22.9414 28.3789L23.7227 27.1094L24.6016 25.8398L25.7734 24.2773L26.5547 23.4961L27.043 22.9102L27.8242 22.2266L29.1914 21.25L30.6562 20.4688L32.4141 19.8828L33.1953 19.6875L34.7578 19.4922Z" fill="#DCDAE8"/>
<path d="M71.4766 29.5508H74.8945V42.3438H71.4766V41.2695L70.4023 42.1484L69.4258 42.5391L68.4492 42.6367L67.375 42.4414L66.4961 42.0508L65.7148 41.4648L65.1289 40.7812L64.543 39.5117L64.3477 38.5352V36.7773L64.543 35.7031L64.9336 34.8242L65.5195 33.9453L66.3984 33.1641L67.1797 32.7734L67.5703 32.6758H69.5234L70.5 33.0664L71.2812 33.75L71.3789 33.5547V29.7461L71.4766 29.5508Z" fill="#FCFCFC"/>
<path d="M160.637 32.6758H162.59L163.566 33.0664L164.543 33.9453L165.129 34.6289L165.52 35.4102L165.812 36.4844V38.6328L165.52 39.8047L164.836 40.9766L164.25 41.6602L163.273 42.2461L162.492 42.5391L161.418 42.6367L160.441 42.4414L159.66 42.1484L158.781 41.3672L158.684 45.1758H155.363V32.8711L155.461 32.7734H158.586L158.684 32.8711L158.781 33.9453L159.465 33.2617L160.637 32.6758Z" fill="#FDFDFD"/>
<path d="M116.594 29.8438H119.523L120.891 30.2344L122.062 30.8203L122.941 31.5039L122.746 31.8945L121.867 32.9688L121.281 33.6523L121.086 33.9453L120.598 33.75L119.328 33.0664L118.547 32.8711H117.57L116.496 33.2617L115.812 33.75L115.227 34.7266L115.031 35.2148L114.934 35.8008V36.9727L115.324 38.0469L115.91 38.8281L116.887 39.4141L117.57 39.6094H118.84L120.012 39.2188L120.109 39.1211L120.207 37.6562H117.668V35.2148L117.766 35.1172H123.43V40.7812L122.062 41.6602L121.281 42.0508L119.914 42.4414L118.938 42.6367H117.277L115.812 42.3438L114.543 41.8555L113.566 41.1719L112.395 40L111.613 38.4375L111.418 37.8516L111.223 35.8984L111.418 34.6289L111.906 33.3594L112.492 32.3828L113.371 31.4062L114.152 30.8203L115.52 30.1367L116.594 29.8438Z" fill="#FCFCFC"/>
<path d="M62.9805 29.9414L63.1758 30.0391V32.8711L63.0781 32.9688H56.6328V34.8242H62.4922L62.5898 34.9219V37.3633L62.4922 37.4609H56.6328V39.5117H63.2734V42.3438H53.3125V30.0391L62.9805 29.9414Z" fill="#FCFCFC"/>
<path d="M125.676 16.4648H127.043L128.02 16.6602L129.191 17.1484L130.266 17.9297L131.047 18.9062L131.535 19.9805L131.73 20.5664L131.828 21.3477V22.4219L131.633 23.3984L131.145 24.5703L130.559 25.3516L129.68 26.2305L128.703 26.8164L127.434 27.207H125.09L124.211 26.9141L123.137 26.3281L122.258 25.6445L121.379 24.2773L120.988 23.2031L120.891 21.543L121.086 20.3711L121.477 19.2969L122.258 18.2227L122.941 17.5391L124.113 16.8555L124.992 16.5625L125.676 16.4648Z" fill="#B9B4DE"/>
<path d="M136.223 32.6758H138.664L139.836 33.0664L140.91 33.75L141.789 34.6289L142.57 36.1914L142.668 36.6797V38.5352L142.277 39.707L141.691 40.6836L140.812 41.5625L139.738 42.1484L138.957 42.4414L138.078 42.6367H136.711L135.441 42.3438L134.27 41.7578L133.293 40.8789L132.707 40L132.219 38.9258L132.121 38.2422V36.9727L132.414 35.8008L133 34.7266L134.172 33.5547L135.539 32.8711L136.223 32.6758Z" fill="#FDFCFD"/>
<path d="M79.9727 32.6758H82.3164L83.5859 33.1641L84.3672 33.75L85.0508 34.5312L85.5391 35.5078L85.832 36.3867L85.9297 37.5586V38.5352H79.582L79.875 39.2188L80.3633 39.707L81.2422 40L82.5117 39.9023L83.293 39.4141L83.4883 39.2188L83.9766 39.3164L84.7578 40L85.4414 40.5859L85.2461 40.9766L84.3672 41.8555L83.3906 42.3438L82.1211 42.6367H80.6562L79.0938 42.2461L78.1172 41.6602L77.5312 41.1719L76.9453 40.3906L76.457 39.4141L76.2617 38.6328V36.582L76.6523 35.4102L77.3359 34.2383L78.2148 33.457L79.582 32.7734L79.9727 32.6758Z" fill="#FCFCFC"/>
<path d="M144.133 32.7734H147.355L147.453 38.3398L147.844 39.2188L148.137 39.4141L149.016 39.5117L149.699 39.2188L150.09 38.4375L150.188 32.8711L150.285 32.7734H153.41L153.508 32.8711V42.2461L153.41 42.3438H150.188L150.09 41.2695L149.113 42.1484L148.137 42.5391L147.062 42.6367L146.086 42.4414L145.109 41.9531L144.426 41.0742L144.133 40.293L144.035 39.5117V32.8711L144.133 32.7734Z" fill="#FBFBFC"/>
<path d="M134.074 16.6602H139.445L140.715 16.9531L141.594 17.5391L142.18 18.2227L142.473 18.9062L142.57 20.2734L142.375 21.25L141.789 22.2266L141.008 22.8125L140.324 23.1055L140.422 23.4961L141.594 25.1562L142.863 26.9141V27.0117H140.715L139.445 25.2539L138.469 23.8867L138.176 23.4961H135.93L135.832 27.0117H134.074V16.6602Z" fill="#B9B4DE"/>
<path d="M100.09 32.6758H102.238L103.801 33.0664L104.973 33.6523V33.9453L103.996 35.7031L103.703 35.8008L102.531 35.3125L101.848 35.1172H100.383V35.8008L103.605 36.875L104.582 37.5586L105.168 38.4375L105.266 39.6094L105.07 40.6836L104.484 41.5625L103.898 42.0508L102.531 42.5391L101.164 42.6367L99.6016 42.4414L98.2344 42.0508L97.1602 41.4648L96.7695 41.0742L97.4531 40.0977L98.0391 39.2188L98.4297 39.3164L99.6992 39.9023L100.578 40.0977H101.848L102.141 39.9023L102.043 39.5117L101.555 39.2188L99.4062 38.5352L98.4297 38.0469L97.7461 37.4609L97.3555 36.7773L97.2578 36.1914V35.4102L97.4531 34.6289L97.8438 33.9453L98.5273 33.2617L99.6016 32.7734L100.09 32.6758Z" fill="#FCFCFC"/>
<path d="M99.9922 16.6602H101.75L102.629 17.832L103.41 18.8086L104.387 20.0781L105.656 21.7383L106.926 23.3008L107.121 23.5938L107.219 22.3242V16.7578L107.316 16.6602H109.074V27.0117H107.512L106.438 25.7422L105.656 24.668L104.289 22.9102L102.336 20.3711L101.945 19.8828V19.6875H101.75V27.0117H99.9922V16.6602Z" fill="#B9B4DE"/>
<path d="M61.418 16.5625H63.1758L64.543 19.6875L66.2031 23.4961L67.2773 26.0352L67.668 26.8164V27.0117H65.7148L65.1289 25.5469L64.6406 24.5703L59.7578 24.4727L59.4648 25.3516L58.7812 27.0117H56.9258L57.0234 26.5234L58.8789 22.3242L60.5391 18.5156L61.418 16.5625Z" fill="#B9B4DE"/>
<path d="M89.9336 16.6602H97.6484V18.2227L91.7891 18.3203V20.8594L97.0625 20.957V22.6172L91.7891 22.7148V25.3516L97.7461 25.4492L97.8438 25.7422V26.5234L97.7461 27.0117H89.9336V16.6602Z" fill="#B9B4DE"/>
<path d="M144.914 16.6602H152.629V18.2227L146.77 18.3203V20.8594L151.848 20.957V22.6172L146.77 22.7148L146.672 25.4492H152.629V27.0117H144.914V16.6602Z" fill="#B9B4DE"/>
<path d="M87.3945 29.5508H90.8125V42.3438H87.3945V29.5508Z" fill="#FDFDFD"/>
<path d="M130.656 32.6758H131.535V36.1914L129.973 36.4844L129.387 36.875L128.996 37.3633L128.703 38.0469L128.605 38.6328L128.508 42.2461L128.41 42.3438H125.09V32.8711L125.188 32.7734H128.41L128.508 32.8711L128.605 34.4336L129.191 33.5547L129.875 32.9688L130.656 32.6758Z" fill="#FAFAFB"/>
<path d="M125.676 18.125H126.945L128.215 18.6133L129.191 19.4922L129.68 20.3711L129.875 20.957V22.8125L129.484 23.7891L128.801 24.668L128.312 25.0586L127.531 25.4492L126.75 25.6445H125.969L124.992 25.3516L124.016 24.7656L123.43 24.082L122.941 23.1055L122.844 22.7148V20.957L123.234 19.8828L123.918 19.1016L124.602 18.5156L125.676 18.125Z" fill="#040992"/>
<path d="M71.4766 16.5625H73.918L75.0898 16.9531L76.1641 17.5391L76.3594 17.9297L75.4805 19.1992L74.0156 18.418L73.4297 18.2227H71.8672L71.1836 18.6133L70.9883 19.1016V19.7852L71.3789 20.2734L72.1602 20.6641L74.8945 21.4453L76.0664 22.1289L76.5547 22.9102L76.75 23.3984V24.7656L76.3594 25.6445L75.9688 26.2305L75.0898 26.8164L74.0156 27.207H71.9648L70.4023 26.7188L69.2305 26.0352L68.6445 25.6445L68.8398 25.2539L69.7188 24.2773L70.1094 24.4727L70.9883 25.0586L71.6719 25.3516L72.4531 25.5469H73.625L74.3086 25.2539L74.7969 24.7656V23.7891L74.3086 23.3008L72.9414 22.8125L71.1836 22.3242L70.207 21.8359L69.4258 21.0547L69.1328 20.3711V18.8086L69.4258 18.0273L70.207 17.1484L70.8906 16.7578L71.4766 16.5625Z" fill="#B9B4DE"/>
<path d="M157.023 16.5625H159.465L160.441 16.8555L161.809 17.6367V18.0273L161.027 19.1016H160.734L159.758 18.5156L158.977 18.2227H157.414L156.73 18.6133L156.535 18.9062V19.8828L157.023 20.3711L158.293 20.8594L160.148 21.3477L161.418 22.0312L161.906 22.6172L162.199 23.2031V25.0586L161.711 25.9375L161.027 26.6211L160.148 27.0117L159.367 27.207H157.609L156.145 26.8164L155.168 26.3281L154.387 25.7422L154.191 25.4492L155.266 24.2773L156.34 24.9609L157.219 25.3516L157.902 25.5469H159.074L160.051 25.1562L160.344 24.4727L160.246 23.5938L159.66 23.2031L158.195 22.7148L156.73 22.3242L155.559 21.7383L154.875 20.957L154.582 20.1758V19.0039L154.973 18.0273L155.656 17.2461L156.438 16.7578L157.023 16.5625Z" fill="#B9B4DE"/>
<path d="M113.859 16.5625H116.398L117.473 16.9531L118.742 17.6367L118.645 18.125L117.961 19.1016L117.57 19.0039L116.203 18.3203L115.812 18.2227H114.348L113.762 18.5156L113.371 19.1016V19.7852L113.859 20.2734L114.641 20.6641L117.277 21.4453L118.156 21.9336L118.938 22.8125L119.23 23.8867L119.133 24.7656L118.84 25.6445L118.156 26.4258L117.375 26.9141L116.398 27.207H114.348L112.59 26.6211L111.516 25.9375L111.125 25.4492L112.102 24.375L112.492 24.4727L113.469 25.0586L114.543 25.4492L114.836 25.5469H116.008L116.984 25.1562L117.277 24.5703V23.8867L116.887 23.3984L116.105 23.0078L113.957 22.4219L112.785 21.9336L111.906 21.1523L111.613 20.5664L111.418 19.4922L111.711 18.3203L112.297 17.4414L112.785 17.0508L113.273 16.7578L113.859 16.5625Z" fill="#B9B4DE"/>
<path d="M83.1953 16.4648H84.5625L85.5391 16.6602L86.6133 17.0508L87.4922 17.6367L87.8828 17.9297L87.7852 18.3203L86.8086 19.3945L85.7344 18.7109L84.9531 18.3203L84.4648 18.2227H83.1953L82.2188 18.6133L81.6328 19.0039L81.0469 19.6875L80.5586 20.7617L80.4609 21.25V22.4219L80.6562 23.2031L81.0469 23.9844L81.5352 24.668L82.4141 25.2539L83.4883 25.5469H84.1719L85.2461 25.2539L86.418 24.5703L86.7109 24.2773L87.1016 24.4727L87.9805 25.3516L87.3945 26.0352L86.418 26.7188L85.0508 27.207H82.6094L81.7305 26.9141L80.6562 26.3281L79.6797 25.4492L78.9961 24.375L78.6055 23.3008L78.5078 22.8125V20.957L78.8984 19.5898L79.582 18.418L80.4609 17.5391L81.6328 16.8555L82.5117 16.5625L83.1953 16.4648Z" fill="#B9B4DE"/>
<path d="M92.5703 30.0391H95.9883L96.0859 30.1367V32.7734L95.9883 34.043L95.5977 35.0195L95.207 35.5078L94.3281 36.0938L93.2539 36.3867H92.375L92.1797 35.6055L92.2773 35.1172L93.2539 34.7266L93.7422 34.1406L93.9375 33.457H92.5703L92.4727 30.1367L92.5703 30.0391Z" fill="#FBFBFC"/>
<path d="M135.93 18.2227H138.859L139.836 18.5156L140.422 18.9062L140.715 19.3945V20.5664L140.422 21.1523L139.934 21.543L139.055 21.8359H135.832V18.3203L135.93 18.2227Z" fill="#040992"/>
<path d="M136.711 35.5078H137.98L138.566 35.8008L139.055 36.2891L139.348 36.7773L139.445 37.168V38.0469L139.152 38.8281L138.762 39.3164L138.078 39.707H136.809L136.027 39.2188L135.637 38.7305L135.441 38.1445V37.0703L135.734 36.2891L136.223 35.8008L136.711 35.5078Z" fill="#040992"/>
<path d="M160.344 35.4102L161.223 35.5078L161.711 35.8008L162.297 36.4844L162.492 36.875V38.2422L162.102 39.0234L161.418 39.6094L160.832 39.8047L159.855 39.707L159.074 39.1211L158.684 38.2422L158.586 37.3633L158.879 36.3867L159.367 35.8008L159.855 35.5078L160.344 35.4102Z" fill="#040992"/>
<path d="M69.3281 35.4102L70.3047 35.5078L71.0859 36.0938L71.4766 36.9727V38.3398L70.9883 39.1211L70.4023 39.6094L69.9141 39.8047L68.8398 39.707L68.0586 39.1211L67.668 38.3398L67.5703 37.5586L67.7656 36.6797L68.1562 35.9961L68.6445 35.6055L69.3281 35.4102Z" fill="#040992"/>
<path d="M62.1992 18.9062H62.3945L63.8594 22.3242L64.0547 23.0078H60.5391L60.4414 22.8125L61.9062 19.3945L62.1992 18.9062Z" fill="#040992"/>
<path d="M80.6562 35.1172H81.6328L82.2188 35.5078L82.6094 36.0938L82.707 36.7773L82.6094 36.875H79.4844L79.3867 36.6797L79.7773 35.8008L80.2656 35.3125L80.6562 35.1172Z" fill="#040992"/>
<path d="M40.0312 25.8398L40.4219 26.0352L40.9102 26.3281L41.6914 26.1328V26.3281L41.0078 26.8164L40.6172 26.6211L40.0312 26.0352V25.8398Z" fill="#F4F3F8"/>
<path d="M31.4375 20.1758H31.8281V20.3711L30.6562 20.7617H30.4609V20.5664L31.4375 20.1758Z" fill="#EAE8F4"/>
</g>
<defs>
<clipPath id="clip0_107_754">
<rect width="166" height="63" fill="white"/>
</clipPath>
</defs>
</svg>
